<svg xmlns="http://www.w3.org/2000/svg" xmlns:xlink="http://www.w3.org/1999/xlink" xmlns:lucid="lucid" width="685" height="807"><g transform="translate(-274 -74)" lucid:page-tab-id="0_0"><path d="M0 0h1870.87v1322.83H0z" fill="#fff"/><path d="M912.43 310v-90h12.5v90z" fill="#fff" fill-opacity="0"/><path d="M312.5 112.5h86.64V160H312.5z" stroke="#000" stroke-width="2" fill="#ddd"/><path d="M312.5 112.5l-6.25-6.25L300 100v755.9l6.25-6.25 6.25-6.25z" fill="#fff"/><path d="M312.5 112.5v730.9M300 855.9V100m12.5 12.5" stroke="#000" stroke-width="2" fill="none"/><use xlink:href="#a" transform="matrix(6.123233995736766e-17,1,-1,6.123233995736766e-17,342.5,447.94980195816584) translate(5.024999999999999 14.4)"/><path d="M312.5 843.4l-6.25 6.25-6.25 6.25h624.93l-6.25-6.25-6.25-6.25z" fill="#fff"/><path d="M312.5 843.4h599.93m12.5 12.5H300m12.5-12.5" stroke="#000" stroke-width="2" fill="none"/><use xlink:href="#b" transform="matrix(1,1.8563348111839033e-16,-1.8563348111839033e-16,1,582.4631815787872,813.399603916332) translate(5.024999999999999 14.4)"/><path d="M912.43 843.4l6.25 6.25 6.25 6.25V310h-12.5zm0-623.4h12.5V100l-6.25 6.25-6.25 6.25z" fill="#fff"/><path d="M912.43 843.4V310h12.5v545.9M912.43 220V112.5m12.5-12.5v120h-12.5" stroke="#000" stroke-width="2" fill="none"/><use xlink:href="#a" transform="matrix(6.123233995736766e-17,-1,1,6.123233995736766e-17,882.4263631575743,507.94980195816584) translate(5.024999999999999 14.4)"/><path d="M912.43 112.5l6.25-6.25 6.25-6.25H300l6.25 6.25 6.25 6.25z" fill="#fff"/><path d="M912.43 112.5H312.5M300 100h624.93m-12.5 12.5" stroke="#000" stroke-width="2" fill="none"/><use xlink:href="#b" transform="matrix(1,-2.4492935982947064e-16,2.4492935982947064e-16,1,582.4631815787872,126.49999999999959) translate(5.024999999999999 14.4)"/><path d="M712.43 420h200v100h-200zM712.43 660h200v100h-200z" stroke="#000" stroke-width="2" fill="#eee"/><path d="M540 840H312.5V620H540" stroke="#000" stroke-width="5" fill="none"/><path d="M652.5 112.5H640v99.67h12.5z" fill="#fff"/><path d="M652.5 112.5v99.67H640V112.5h12.5z" stroke="#000" stroke-width="2" fill="none"/><use xlink:href="#c" transform="matrix(6.123233995736766e-17,1,-1,6.123233995736766e-17,682.5000000000001,132.3334526881863) translate(5.024999999999999 14.4)"/><path d="M662.46 136.67c0-3.32 2.7-6 6-6h228c3.32 0 6 2.68 6 6V188c0 3.3-2.68 6-6 6h-228c-3.3 0-6-2.7-6-6z" stroke="#000" stroke-opacity="0" stroke-width="3" fill="#fff" fill-opacity="0"/><use xlink:href="#d" transform="matrix(1,0,0,1,667.4631815787872,135.6667860215196) translate(83.51851851851852 31.27777777777778)"/><g stroke="#000" stroke-width="2" fill="#bbb"><path d="M372.06 744.13c-2.16-14.25-2.16-14.25 0-28.46 12.52-2.05 12.52-2.05 26.18-2.05 1.26 16.26 1.26 16.26 0 32.56-13.66 0-13.66 0-26.18-2.05z"/><path d="M362.94 730.4v-1c0-.54.4-.94.9-.94h6.92c.5 0 .9.4.9.95v1c0 .5-.4.94-.9.94h-6.92c-.5 0-.9-.43-.9-.95zM364.2 743.22l-.1-1.02c-.03-.52.32-1 .83-1.03l6.9-.63c.46-.04.9.35.93.87l.12 1.03c.04.52-.3.95-.82 1l-6.9.62c-.5.04-.93-.3-.97-.83zM363.37 736.8l-.04-1c-.04-.5.35-.94.86-.98l6.88-.32c.5-.04.94.4.94.9l.08 1.03c0 .52-.4.95-.9.95l-6.9.32c-.5.04-.93-.36-.93-.9zM363.33 724l.04-1.03c0-.5.43-.9.94-.86l6.9.32c.5 0 .9.44.9.95l-.08 1.02c0 .5-.43.9-.94.9l-6.9-.3c-.5-.05-.9-.5-.85-1zM364.1 717.6l.1-1.02c.03-.5.46-.87.97-.83l6.9.6c.5.07.85.5.8 1.02l-.1 1.02c-.05.5-.48.9-.95.86l-6.9-.63c-.5-.04-.85-.5-.8-1.02z"/><path d="M361.72 749.03c-2.03-19.15-2.03-19.15 0-38.25 1.14-1.4 3.68.27 4.78 1.6-2.23 19.16-2.23 15.88 0 35.03-1.1 1.35-3.64 2.97-4.78 1.63z"/></g><path d="M420.36 667.16c14.13-2.17 14.13-2.17 28.22 0 2.04 12.63 2.04 12.63 2.04 26.4-16.13 1.27-16.13 1.27-32.3 0 0-13.77 0-13.77 2.04-26.4z" stroke="#000" stroke-width="2" fill="#bbb"/><path d="M433.98 657.96h.98c.55 0 .94.4.94.9v7c0 .5-.4.9-.94.9h-.98c-.5 0-.94-.4-.94-.9v-7c0-.5.43-.9.94-.9zM421.26 659.22l1.02-.08c.5-.03.98.32 1.02.83l.62 6.95c.04.47-.35.9-.86.95l-1.02.12c-.5.03-.94-.33-.97-.84l-.63-6.95c-.04-.5.3-.94.82-.98zM427.64 658.4l.98-.04c.5-.04.94.35.98.86l.3 6.95c.05.5-.38.95-.9.95l-1 .08c-.5 0-.95-.4-.95-.9l-.3-6.96c-.05-.5.34-.95.9-.95zM440.32 658.36l1.02.03c.5 0 .9.43.86.94l-.3 6.95c0 .5-.44.9-.95.9l-1.02-.08c-.5 0-.9-.44-.9-.95l.32-6.95c.04-.5.47-.9.97-.86zM446.67 659.14l1 .08c.52.04.88.48.84 1l-.58 6.94c-.08.5-.5.87-1.02.83l-1.02-.13c-.5-.04-.9-.48-.86-.95l.63-6.95c.04-.5.5-.86 1.02-.83z" stroke="#000" stroke-width="2" fill="#bbb"/><path d="M415.5 656.74c19-2.06 19-2.06 37.94 0 1.37 1.14-.28 3.7-1.6 4.8-19-2.24-15.74-2.24-34.73 0-1.32-1.1-2.92-3.66-1.6-4.8z" stroke="#000" stroke-width="2" fill="#bbb"/><g stroke="#000" stroke-width="2" fill="#bbb"><path d="M448.4 792.84c-14.14 2.17-14.14 2.17-28.23 0-2.04-12.63-2.04-12.63-2.04-26.4 16.13-1.27 16.13-1.27 32.3 0 0 13.77 0 13.77-2.04 26.4z"/><path d="M434.77 802.04h-.98c-.56 0-.95-.4-.95-.9v-7c0-.5.4-.9.94-.9h.97c.5 0 .94.4.94.9v7c0 .5-.42.9-.93.9zM447.5 800.78l-1.03.08c-.5.03-.98-.32-1.02-.83l-.62-6.95c-.04-.47.35-.9.86-.95l1-.12c.5-.03.95.33.98.84l.63 6.95c.05.5-.3.94-.8.98zM441.1 801.6l-.97.04c-.5.04-.94-.35-.98-.86l-.3-6.95c-.05-.5.38-.95.9-.95l1-.08c.5 0 .95.4.95.9l.3 6.96c.05.5-.34.95-.9.95zM428.42 801.64l-1-.03c-.52 0-.9-.43-.87-.94l.3-6.95c0-.5.44-.9.95-.9l1.02.08c.5 0 .9.44.9.95l-.32 6.95c-.04.5-.47.9-.98.86zM422.08 800.86l-1-.08c-.52-.04-.88-.48-.84-1l.6-6.94c.07-.5.5-.87 1-.83l1.03.13c.5.04.9.48.86.95l-.63 6.95c-.04.5-.5.86-1.02.83z"/><path d="M453.24 803.26c-18.98 2.06-18.98 2.06-37.93 0-1.36-1.14.3-3.7 1.62-4.8 18.98 2.24 15.73 2.24 34.72 0 1.33 1.1 2.93 3.66 1.6 4.8z"/></g><g stroke="#000" stroke-width="2" fill="#bbb"><path d="M496.7 715.87c2.15 14.25 2.15 14.25 0 28.46-12.53 2.05-12.53 2.05-26.2 2.05-1.25-16.26-1.25-16.26 0-32.56 13.67 0 13.67 0 26.2 2.05z"/><path d="M505.8 729.6v1c0 .54-.38.94-.9.94H498c-.52 0-.92-.4-.92-.95v-1c0-.5.4-.94.9-.94h6.93c.52 0 .9.43.9.95zM504.56 716.78l.08 1.02c.04.52-.3 1-.82 1.03l-6.9.63c-.46.04-.9-.35-.93-.87l-.13-1.03c-.04-.52.3-.95.82-1l6.88-.62c.5-.04.94.3.98.83zM505.38 723.2l.04 1c.04.5-.35.94-.86.98l-6.9.32c-.5.04-.93-.4-.93-.9l-.08-1.03c0-.52.4-.95.9-.95l6.9-.32c.5-.04.93.36.93.9zM505.42 736l-.04 1.03c0 .5-.43.9-.94.86l-6.9-.32c-.5 0-.9-.44-.9-.95l.1-1.02c0-.5.42-.9.93-.9l6.9.3c.5.05.9.5.85 1zM504.64 742.4l-.08 1.02c-.04.5-.47.87-.98.83l-6.9-.6c-.5-.07-.85-.5-.8-1.02l.1-1.02c.05-.5.48-.9.95-.86l6.9.63c.5.04.85.5.8 1.02z"/><path d="M507.03 710.97c2.03 19.15 2.03 19.15 0 38.25-1.14 1.4-3.68-.27-4.78-1.6 2.23-19.16 2.23-15.88 0-35.03 1.1-1.35 3.64-2.97 4.78-1.63z"/></g><path d="M375.66 670.8H493.1v118.4H375.65z" stroke="#000" stroke-width="2" fill="#ddd"/><path d="M340 118.5c0-3.3 2.7-6 6-6h228c3.3 0 6 2.7 6 6v48c0 3.3-2.7 6-6 6H346c-3.3 0-6-2.7-6-6z" stroke="#000" stroke-opacity="0" stroke-width="3" fill="#fff" fill-opacity="0"/><use xlink:href="#e" transform="matrix(1,0,0,1,345,117.49999999999963) translate(76.2037037037037 30.27777777777778)"/><path d="M557.48 128.5c0-3.3 2.7-6 6-6h68c3.3 0 6 2.7 6 6v28c0 3.3-2.7 6-6 6h-68c-3.3 0-6-2.7-6-6z" stroke="#fff" stroke-width="3" fill="#fff"/><use xlink:href="#f" transform="matrix(1,0,0,1,562.4803149606299,127.49999999999963) translate(35.5 17.77777777777778)"/><use xlink:href="#g" transform="matrix(1,0,0,1,562.4803149606299,127.49999999999963) translate(35.5 44.44444444444444)"/><path d="M662.46 136.67c0-3.32 2.7-6 6-6h15.5c3.32 0 6 2.68 6 6v52.83c0 3.3-2.68 6-6 6h-15.5c-3.3 0-6-2.7-6-6z" stroke="#fff" stroke-width="3" fill="#fff"/><g><use xlink:href="#f" transform="matrix(1,0,0,1,667.4631815787872,135.6667860215196) translate(9 17.77777777777778)"/><use xlink:href="#g" transform="matrix(1,0,0,1,667.4631815787872,135.6667860215196) translate(9 44.44444444444444)"/></g><g><path d="M638.83 805c3.32 0 6 2.7 6 6v15.5c0 3.3-2.68 6-6 6H586c-3.3 0-6-2.7-6-6V811c0-3.3 2.7-6 6-6z" stroke="#fff" stroke-width="3" fill="#fff"/></g><g><use xlink:href="#f" transform="matrix(6.123233995736766e-17,1,-1,6.123233995736766e-17,639.8331543010536,810) translate(9 17.77777777777778)"/><use xlink:href="#g" transform="matrix(6.123233995736766e-17,1,-1,6.123233995736766e-17,639.8331543010536,810) translate(9 44.44444444444444)"/></g><g class="lucid-layer" lucid:layer-id="1uFtq3ZKxfw8" display="block"><path d="M312.5 420h200v100h-200z" stroke="#000" stroke-width="2" fill="#eee"/></g><defs><path d="M64 0c3-98 48-159 88-221H18v-27h164v26C143-157 98-101 97 0H64" id="h"/><path d="M33 0v-38h34V0H33" id="i"/><path d="M155-56V0h-30v-56H8v-25l114-167h33v167h35v25h-35zm-30-156c-27 46-58 90-88 131h88v-131" id="j"/><path d="M126-127c33 6 58 20 58 59 0 88-139 92-164 29-3-8-5-16-6-25l32-3c6 27 21 44 54 44 32 0 52-15 52-46 0-38-36-46-79-43v-28c39 1 72-4 72-42 0-27-17-43-46-43-28 0-47 15-49 41l-32-3c6-42 35-63 81-64 48-1 79 21 79 65 0 36-21 52-52 59" id="k"/><path d="M210-169c-67 3-38 105-44 169h-31v-121c0-29-5-50-35-48C34-165 62-65 56 0H25l-1-190h30c1 10-1 24 2 32 10-44 99-50 107 0 11-21 27-35 58-36 85-2 47 119 55 194h-31v-121c0-29-5-49-35-48" id="l"/><g id="a"><use transform="matrix(0.05,0,0,0.05,0,0)" xlink:href="#h"/><use transform="matrix(0.05,0,0,0.05,10,0)" xlink:href="#i"/><use transform="matrix(0.05,0,0,0.05,15,0)" xlink:href="#j"/><use transform="matrix(0.05,0,0,0.05,25,0)" xlink:href="#k"/><use transform="matrix(0.05,0,0,0.05,35,0)" xlink:href="#l"/></g><path d="M110-160c48 1 74 30 74 79 0 53-28 85-80 85-65 0-83-55-86-122-5-90 50-162 133-122 14 7 22 21 27 39l-31 6c-5-40-67-38-82-6-9 19-15 44-15 74 11-20 30-34 60-33zm-7 138c34 0 49-23 49-58s-16-56-50-56c-29 0-50 16-49 49 1 36 15 65 50 65" id="m"/><path d="M27 0v-27h64v-190l-56 39v-29l58-41h29v221h61V0H27" id="n"/><path d="M101-251c68 0 85 55 85 127S166 4 100 4C33 4 14-52 14-124c0-73 17-127 87-127zm-1 229c47 0 54-49 54-102s-4-102-53-102c-51 0-55 48-55 102 0 53 5 102 54 102" id="o"/><g id="b"><use transform="matrix(0.05,0,0,0.05,0,0)" xlink:href="#m"/><use transform="matrix(0.05,0,0,0.05,10,0)" xlink:href="#i"/><use transform="matrix(0.05,0,0,0.05,15,0)" xlink:href="#n"/><use transform="matrix(0.05,0,0,0.05,25,0)" xlink:href="#o"/><use transform="matrix(0.05,0,0,0.05,35,0)" xlink:href="#l"/></g><g id="c"><use transform="matrix(0.05,0,0,0.05,0,0)" xlink:href="#n"/><use transform="matrix(0.05,0,0,0.05,10,0)" xlink:href="#i"/><use transform="matrix(0.05,0,0,0.05,15,0)" xlink:href="#o"/><use transform="matrix(0.05,0,0,0.05,25,0)" xlink:href="#n"/><use transform="matrix(0.05,0,0,0.05,35,0)" xlink:href="#l"/></g><path fill="#333" d="M194 0L95-120 63-95V0H30v-248h33v124l119-124h40L117-140 236 0h-42" id="p"/><path fill="#333" d="M85 4C-4 8 31-112 24-190h32v120c0 31 7 50 39 49 72-2 45-101 50-169h31l1 190h-30c-1-10 1-25-2-33-11 22-28 36-60 37zm34-218v-33h29v33h-29zm-69 0v-33h29v33H50" id="q"/><path fill="#333" d="M96-169c-40 0-48 33-48 73s9 75 48 75c24 0 41-14 43-38l32 2c-6 37-31 61-74 61-59 0-76-41-82-99-10-93 101-131 147-64 4 7 5 14 7 22l-32 3c-4-21-16-35-41-35" id="r"/><path fill="#333" d="M106-169C34-169 62-67 57 0H25v-261h32l-1 103c12-21 28-36 61-36 89 0 53 116 60 194h-32v-121c2-32-8-49-39-48" id="s"/><path fill="#333" d="M100-194c63 0 86 42 84 106H49c0 40 14 67 53 68 26 1 43-12 49-29l28 8c-11 28-37 45-77 45C44 4 14-33 15-96c1-61 26-98 85-98zm52 81c6-60-76-77-97-28-3 7-6 17-6 28h103" id="t"/><g id="d"><use transform="matrix(0.06172839506172839,0,0,0.06172839506172839,0,0)" xlink:href="#p"/><use transform="matrix(0.06172839506172839,0,0,0.06172839506172839,14.814814814814813,0)" xlink:href="#q"/><use transform="matrix(0.06172839506172839,0,0,0.06172839506172839,27.160493827160494,0)" xlink:href="#r"/><use transform="matrix(0.06172839506172839,0,0,0.06172839506172839,38.27160493827161,0)" xlink:href="#s"/><use transform="matrix(0.06172839506172839,0,0,0.06172839506172839,50.617283950617285,0)" xlink:href="#t"/></g><path fill="#333" d="M30-248c118-7 216 8 213 122C240-48 200 0 122 0H30v-248zM63-27c89 8 146-16 146-99s-60-101-146-95v194" id="u"/><path fill="#333" d="M114-163C36-179 61-72 57 0H25l-1-190h30c1 12-1 29 2 39 6-27 23-49 58-41v29" id="v"/><path fill="#333" d="M84 4C-5 8 30-112 23-190h32v120c0 31 7 50 39 49 72-2 45-101 50-169h31l1 190h-30c-1-10 1-25-2-33-11 22-28 36-60 37" id="w"/><path fill="#333" d="M143 0L79-87 56-68V0H24v-261h32v163l83-92h37l-77 82L181 0h-38" id="x"/><g id="e"><use transform="matrix(0.06172839506172839,0,0,0.06172839506172839,0,0)" xlink:href="#u"/><use transform="matrix(0.06172839506172839,0,0,0.06172839506172839,15.987654320987653,0)" xlink:href="#v"/><use transform="matrix(0.06172839506172839,0,0,0.06172839506172839,23.333333333333332,0)" xlink:href="#w"/><use transform="matrix(0.06172839506172839,0,0,0.06172839506172839,35.67901234567901,0)" xlink:href="#r"/><use transform="matrix(0.06172839506172839,0,0,0.06172839506172839,46.79012345679013,0)" xlink:href="#x"/><use transform="matrix(0.06172839506172839,0,0,0.06172839506172839,57.90123456790124,0)" xlink:href="#t"/><use transform="matrix(0.06172839506172839,0,0,0.06172839506172839,70.24691358024693,0)" xlink:href="#v"/></g></defs></g></svg>